<?xml version="1.0" encoding="UTF-8"?>
<svg xmlns="http://www.w3.org/2000/svg" width="384" height="384" viewBox="0 0 384 384" shape-rendering="crispEdges">
  <rect x="192" y="64" width="8" height="8" fill="#d0a171" />
<rect x="152" y="72" width="88" height="8" fill="#d0a171" />
<rect x="136" y="80" width="120" height="8" fill="#d0a171" />
<rect x="120" y="88" width="8" height="8" fill="#d0a171" />
<rect x="128" y="88" width="56" height="8" fill="#fff0d7" />
<rect x="184" y="88" width="88" height="8" fill="#d0a171" />
<rect x="112" y="96" width="8" height="8" fill="#d0a171" />
<rect x="120" y="96" width="72" height="8" fill="#fff0d7" />
<rect x="192" y="96" width="88" height="8" fill="#d0a171" />
<rect x="104" y="104" width="8" height="8" fill="#d0a171" />
<rect x="112" y="104" width="88" height="8" fill="#fff0d7" />
<rect x="200" y="104" width="88" height="8" fill="#d0a171" />
<rect x="96" y="112" width="8" height="8" fill="#d0a171" />
<rect x="104" y="112" width="104" height="8" fill="#fff0d7" />
<rect x="208" y="112" width="88" height="8" fill="#d0a171" />
<rect x="88" y="120" width="8" height="8" fill="#d0a171" />
<rect x="96" y="120" width="120" height="8" fill="#fff0d7" />
<rect x="216" y="120" width="8" height="8" fill="#7c5132" />
<rect x="224" y="120" width="80" height="8" fill="#d0a171" />
<rect x="64" y="128" width="256" height="8" fill="#d8bb93" />
<rect x="64" y="136" width="104" height="8" fill="#d8bb93" />
<rect x="168" y="136" width="8" height="8" fill="#b46b46" />
<rect x="176" y="136" width="144" height="8" fill="#d8bb93" />
<rect x="80" y="144" width="16" height="8" fill="#d0a171" />
<rect x="96" y="144" width="64" height="8" fill="#fff0d7" />
<rect x="160" y="144" width="24" height="8" fill="#b46b46" />
<rect x="184" y="144" width="32" height="8" fill="#fff0d7" />
<rect x="216" y="144" width="72" height="8" fill="#7c5132" />
<rect x="288" y="144" width="24" height="8" fill="#d0a171" />
<rect x="72" y="152" width="24" height="8" fill="#d0a171" />
<rect x="96" y="152" width="56" height="8" fill="#fff0d7" />
<rect x="152" y="152" width="40" height="8" fill="#b46b46" />
<rect x="192" y="152" width="24" height="8" fill="#fff0d7" />
<rect x="216" y="152" width="80" height="8" fill="#7c5132" />
<rect x="296" y="152" width="24" height="8" fill="#d0a171" />
<rect x="72" y="160" width="24" height="8" fill="#d0a171" />
<rect x="96" y="160" width="64" height="8" fill="#fff0d7" />
<rect x="160" y="160" width="24" height="8" fill="#b46b46" />
<rect x="184" y="160" width="32" height="8" fill="#fff0d7" />
<rect x="216" y="160" width="88" height="8" fill="#7c5132" />
<rect x="304" y="160" width="16" height="8" fill="#d0a171" />
<rect x="64" y="168" width="104" height="8" fill="#b97d5d" />
<rect x="168" y="168" width="8" height="8" fill="#b46b46" />
<rect x="176" y="168" width="144" height="8" fill="#b97d5d" />
<rect x="64" y="176" width="256" height="8" fill="#b97d5d" />
<rect x="72" y="184" width="40" height="8" fill="#d0a171" />
<rect x="112" y="184" width="88" height="8" fill="#fff0d7" />
<rect x="200" y="184" width="8" height="8" fill="#d0a171" />
<rect x="208" y="184" width="112" height="8" fill="#7c5132" />
<rect x="64" y="192" width="56" height="8" fill="#d0a171" />
<rect x="120" y="192" width="72" height="8" fill="#fff0d7" />
<rect x="192" y="192" width="16" height="8" fill="#d0a171" />
<rect x="208" y="192" width="40" height="8" fill="#7c5132" />
<rect x="248" y="192" width="8" height="8" fill="#b46b46" />
<rect x="256" y="192" width="64" height="8" fill="#7c5132" />
<rect x="320" y="192" width="8" height="8" fill="#d0a171" />
<rect x="72" y="200" width="48" height="8" fill="#d0a171" />
<rect x="120" y="200" width="8" height="8" fill="#7c5132" />
<rect x="128" y="200" width="40" height="8" fill="#fff0d7" />
<rect x="168" y="200" width="8" height="8" fill="#b46b46" />
<rect x="176" y="200" width="8" height="8" fill="#fff0d7" />
<rect x="184" y="200" width="56" height="8" fill="#7c5132" />
<rect x="240" y="200" width="24" height="8" fill="#b46b46" />
<rect x="264" y="200" width="56" height="8" fill="#7c5132" />
<rect x="64" y="208" width="96" height="8" fill="#d8bb93" />
<rect x="160" y="208" width="24" height="8" fill="#b46b46" />
<rect x="184" y="208" width="48" height="8" fill="#d8bb93" />
<rect x="232" y="208" width="40" height="8" fill="#b46b46" />
<rect x="272" y="208" width="48" height="8" fill="#d8bb93" />
<rect x="64" y="216" width="88" height="8" fill="#d8bb93" />
<rect x="152" y="216" width="40" height="8" fill="#b46b46" />
<rect x="192" y="216" width="48" height="8" fill="#d8bb93" />
<rect x="240" y="216" width="24" height="8" fill="#b46b46" />
<rect x="264" y="216" width="56" height="8" fill="#d8bb93" />
<rect x="72" y="224" width="40" height="8" fill="#d0a171" />
<rect x="112" y="224" width="48" height="8" fill="#7c5132" />
<rect x="160" y="224" width="24" height="8" fill="#b46b46" />
<rect x="184" y="224" width="64" height="8" fill="#7c5132" />
<rect x="248" y="224" width="8" height="8" fill="#b46b46" />
<rect x="256" y="224" width="72" height="8" fill="#7c5132" />
<rect x="72" y="232" width="48" height="8" fill="#d0a171" />
<rect x="120" y="232" width="48" height="8" fill="#7c5132" />
<rect x="168" y="232" width="8" height="8" fill="#b46b46" />
<rect x="176" y="232" width="144" height="8" fill="#7c5132" />
<rect x="80" y="240" width="40" height="8" fill="#d0a171" />
<rect x="120" y="240" width="200" height="8" fill="#7c5132" />
<rect x="64" y="248" width="256" height="8" fill="#b97d5d" />
<rect x="64" y="256" width="256" height="8" fill="#b97d5d" />
<rect x="88" y="264" width="32" height="8" fill="#d0a171" />
<rect x="120" y="264" width="200" height="8" fill="#7c5132" />
<rect x="96" y="272" width="32" height="8" fill="#d0a171" />
<rect x="128" y="272" width="184" height="8" fill="#7c5132" />
<rect x="104" y="280" width="32" height="8" fill="#d0a171" />
<rect x="136" y="280" width="168" height="8" fill="#7c5132" />
<rect x="112" y="288" width="24" height="8" fill="#d0a171" />
<rect x="136" y="288" width="168" height="8" fill="#7c5132" />
<rect x="120" y="296" width="24" height="8" fill="#d0a171" />
<rect x="144" y="296" width="152" height="8" fill="#7c5132" />
<rect x="136" y="304" width="16" height="8" fill="#d0a171" />
<rect x="152" y="304" width="136" height="8" fill="#7c5132" />
<rect x="152" y="312" width="16" height="8" fill="#d0a171" />
<rect x="168" y="312" width="104" height="8" fill="#7c5132" />
<rect x="176" y="320" width="88" height="8" fill="#7c5132" />
<rect x="216" y="328" width="8" height="8" fill="#7c5132" />
</svg>
