<?xml version="1.0" encoding="UTF-8"?>
<svg xmlns="http://www.w3.org/2000/svg" width="384" height="384" viewBox="0 0 384 384" shape-rendering="crispEdges">
  <rect x="192" y="72" width="8" height="8" fill="#d9c7b9" />
<rect x="152" y="80" width="88" height="8" fill="#d9c7b9" />
<rect x="136" y="88" width="8" height="8" fill="#d9c7b9" />
<rect x="144" y="88" width="24" height="8" fill="#fff7ec" />
<rect x="168" y="88" width="88" height="8" fill="#d9c7b9" />
<rect x="120" y="96" width="8" height="8" fill="#d9c7b9" />
<rect x="128" y="96" width="56" height="8" fill="#fff7ec" />
<rect x="184" y="96" width="88" height="8" fill="#d9c7b9" />
<rect x="112" y="104" width="88" height="8" fill="#fff7ec" />
<rect x="200" y="104" width="80" height="8" fill="#d9c7b9" />
<rect x="104" y="112" width="8" height="8" fill="#d9c7b9" />
<rect x="112" y="112" width="88" height="8" fill="#fff7ec" />
<rect x="200" y="112" width="88" height="8" fill="#d9c7b9" />
<rect x="96" y="120" width="8" height="8" fill="#d9c7b9" />
<rect x="104" y="120" width="104" height="8" fill="#fff7ec" />
<rect x="208" y="120" width="88" height="8" fill="#d9c7b9" />
<rect x="96" y="128" width="8" height="8" fill="#d9c7b9" />
<rect x="104" y="128" width="104" height="8" fill="#fff7ec" />
<rect x="208" y="128" width="8" height="8" fill="#d9c7b9" />
<rect x="216" y="128" width="8" height="8" fill="#5c4a53" />
<rect x="224" y="128" width="72" height="8" fill="#d9c7b9" />
<rect x="88" y="136" width="8" height="8" fill="#d9c7b9" />
<rect x="96" y="136" width="120" height="8" fill="#fff7ec" />
<rect x="216" y="136" width="8" height="8" fill="#5c4a53" />
<rect x="224" y="136" width="8" height="8" fill="#c493b7" />
<rect x="232" y="136" width="24" height="8" fill="#5c4a53" />
<rect x="256" y="136" width="48" height="8" fill="#d9c7b9" />
<rect x="88" y="144" width="8" height="8" fill="#d9c7b9" />
<rect x="96" y="144" width="120" height="8" fill="#fff7ec" />
<rect x="216" y="144" width="24" height="8" fill="#c493b7" />
<rect x="240" y="144" width="32" height="8" fill="#5c4a53" />
<rect x="272" y="144" width="32" height="8" fill="#d9c7b9" />
<rect x="80" y="152" width="16" height="8" fill="#d9c7b9" />
<rect x="96" y="152" width="16" height="8" fill="#fff7ec" />
<rect x="112" y="152" width="64" height="8" fill="#ece0d6" />
<rect x="176" y="152" width="32" height="8" fill="#fff7ec" />
<rect x="208" y="152" width="40" height="8" fill="#c493b7" />
<rect x="248" y="152" width="32" height="8" fill="#5c4a53" />
<rect x="280" y="152" width="32" height="8" fill="#d9c7b9" />
<rect x="80" y="160" width="24" height="8" fill="#d9c7b9" />
<rect x="104" y="160" width="8" height="8" fill="#fff7ec" />
<rect x="112" y="160" width="64" height="8" fill="#ece0d6" />
<rect x="176" y="160" width="32" height="8" fill="#fff7ec" />
<rect x="208" y="160" width="8" height="8" fill="#5c4a53" />
<rect x="216" y="160" width="24" height="8" fill="#c493b7" />
<rect x="240" y="160" width="48" height="8" fill="#5c4a53" />
<rect x="288" y="160" width="24" height="8" fill="#d9c7b9" />
<rect x="80" y="168" width="24" height="8" fill="#d9c7b9" />
<rect x="104" y="168" width="104" height="8" fill="#fff7ec" />
<rect x="208" y="168" width="16" height="8" fill="#5c4a53" />
<rect x="224" y="168" width="8" height="8" fill="#c493b7" />
<rect x="232" y="168" width="64" height="8" fill="#5c4a53" />
<rect x="296" y="168" width="16" height="8" fill="#d9c7b9" />
<rect x="80" y="176" width="32" height="8" fill="#d9c7b9" />
<rect x="112" y="176" width="40" height="8" fill="#fff7ec" />
<rect x="152" y="176" width="8" height="8" fill="#c493b7" />
<rect x="160" y="176" width="40" height="8" fill="#fff7ec" />
<rect x="200" y="176" width="8" height="8" fill="#d9c7b9" />
<rect x="208" y="176" width="96" height="8" fill="#5c4a53" />
<rect x="304" y="176" width="8" height="8" fill="#d9c7b9" />
<rect x="80" y="184" width="32" height="8" fill="#d9c7b9" />
<rect x="112" y="184" width="32" height="8" fill="#fff7ec" />
<rect x="144" y="184" width="24" height="8" fill="#c493b7" />
<rect x="168" y="184" width="32" height="8" fill="#fff7ec" />
<rect x="200" y="184" width="8" height="8" fill="#d9c7b9" />
<rect x="208" y="184" width="96" height="8" fill="#5c4a53" />
<rect x="304" y="184" width="8" height="8" fill="#d9c7b9" />
<rect x="72" y="192" width="56" height="8" fill="#d9c7b9" />
<rect x="128" y="192" width="8" height="8" fill="#fff7ec" />
<rect x="136" y="192" width="40" height="8" fill="#c493b7" />
<rect x="176" y="192" width="8" height="8" fill="#fff7ec" />
<rect x="184" y="192" width="24" height="8" fill="#d9c7b9" />
<rect x="208" y="192" width="24" height="8" fill="#5c4a53" />
<rect x="232" y="192" width="8" height="8" fill="#b983aa" />
<rect x="240" y="192" width="16" height="8" fill="#5c4a53" />
<rect x="256" y="192" width="8" height="8" fill="#c493b7" />
<rect x="264" y="192" width="48" height="8" fill="#5c4a53" />
<rect x="312" y="192" width="8" height="8" fill="#d9c7b9" />
<rect x="80" y="200" width="48" height="8" fill="#d9c7b9" />
<rect x="128" y="200" width="16" height="8" fill="#5c4a53" />
<rect x="144" y="200" width="24" height="8" fill="#c493b7" />
<rect x="168" y="200" width="48" height="8" fill="#5c4a53" />
<rect x="216" y="200" width="32" height="8" fill="#b983aa" />
<rect x="248" y="200" width="24" height="8" fill="#c493b7" />
<rect x="272" y="200" width="40" height="8" fill="#5c4a53" />
<rect x="80" y="208" width="48" height="8" fill="#d9c7b9" />
<rect x="128" y="208" width="24" height="8" fill="#5c4a53" />
<rect x="152" y="208" width="8" height="8" fill="#c493b7" />
<rect x="160" y="208" width="48" height="8" fill="#5c4a53" />
<rect x="208" y="208" width="32" height="8" fill="#b983aa" />
<rect x="240" y="208" width="40" height="8" fill="#c493b7" />
<rect x="280" y="208" width="32" height="8" fill="#5c4a53" />
<rect x="80" y="216" width="48" height="8" fill="#d9c7b9" />
<rect x="128" y="216" width="80" height="8" fill="#5c4a53" />
<rect x="208" y="216" width="40" height="8" fill="#b983aa" />
<rect x="248" y="216" width="24" height="8" fill="#c493b7" />
<rect x="272" y="216" width="40" height="8" fill="#5c4a53" />
<rect x="80" y="224" width="40" height="8" fill="#d9c7b9" />
<rect x="120" y="224" width="24" height="8" fill="#5c4a53" />
<rect x="144" y="224" width="8" height="8" fill="#e5d8cf" />
<rect x="152" y="224" width="48" height="8" fill="#5c4a53" />
<rect x="200" y="224" width="56" height="8" fill="#b983aa" />
<rect x="256" y="224" width="8" height="8" fill="#c493b7" />
<rect x="264" y="224" width="8" height="8" fill="#b983aa" />
<rect x="272" y="224" width="48" height="8" fill="#5c4a53" />
<rect x="80" y="232" width="48" height="8" fill="#d9c7b9" />
<rect x="128" y="232" width="32" height="8" fill="#e5d8cf" />
<rect x="160" y="232" width="8" height="8" fill="#c493b7" />
<rect x="168" y="232" width="40" height="8" fill="#5c4a53" />
<rect x="208" y="232" width="56" height="8" fill="#b983aa" />
<rect x="264" y="232" width="48" height="8" fill="#5c4a53" />
<rect x="88" y="240" width="40" height="8" fill="#d9c7b9" />
<rect x="128" y="240" width="24" height="8" fill="#e5d8cf" />
<rect x="152" y="240" width="24" height="8" fill="#c493b7" />
<rect x="176" y="240" width="32" height="8" fill="#5c4a53" />
<rect x="208" y="240" width="56" height="8" fill="#b983aa" />
<rect x="264" y="240" width="48" height="8" fill="#5c4a53" />
<rect x="88" y="248" width="32" height="8" fill="#d9c7b9" />
<rect x="120" y="248" width="24" height="8" fill="#e5d8cf" />
<rect x="144" y="248" width="40" height="8" fill="#c493b7" />
<rect x="184" y="248" width="32" height="8" fill="#5c4a53" />
<rect x="216" y="248" width="40" height="8" fill="#b983aa" />
<rect x="256" y="248" width="56" height="8" fill="#5c4a53" />
<rect x="96" y="256" width="32" height="8" fill="#d9c7b9" />
<rect x="128" y="256" width="24" height="8" fill="#e5d8cf" />
<rect x="152" y="256" width="24" height="8" fill="#c493b7" />
<rect x="176" y="256" width="56" height="8" fill="#5c4a53" />
<rect x="232" y="256" width="8" height="8" fill="#b983aa" />
<rect x="240" y="256" width="72" height="8" fill="#5c4a53" />
<rect x="96" y="264" width="32" height="8" fill="#d9c7b9" />
<rect x="128" y="264" width="32" height="8" fill="#e5d8cf" />
<rect x="160" y="264" width="8" height="8" fill="#c493b7" />
<rect x="168" y="264" width="136" height="8" fill="#5c4a53" />
<rect x="104" y="272" width="32" height="8" fill="#d9c7b9" />
<rect x="136" y="272" width="8" height="8" fill="#5c4a53" />
<rect x="144" y="272" width="8" height="8" fill="#e5d8cf" />
<rect x="152" y="272" width="152" height="8" fill="#5c4a53" />
<rect x="112" y="280" width="32" height="8" fill="#d9c7b9" />
<rect x="144" y="280" width="152" height="8" fill="#5c4a53" />
<rect x="120" y="288" width="32" height="8" fill="#d9c7b9" />
<rect x="152" y="288" width="136" height="8" fill="#5c4a53" />
<rect x="136" y="296" width="24" height="8" fill="#d9c7b9" />
<rect x="160" y="296" width="120" height="8" fill="#5c4a53" />
<rect x="152" y="304" width="16" height="8" fill="#d9c7b9" />
<rect x="168" y="304" width="104" height="8" fill="#5c4a53" />
<rect x="184" y="312" width="72" height="8" fill="#5c4a53" />
<rect x="216" y="320" width="8" height="8" fill="#5c4a53" />
</svg>
