<?xml version="1.0" encoding="UTF-8"?>
<svg xmlns="http://www.w3.org/2000/svg" width="384" height="384" viewBox="0 0 384 384" shape-rendering="crispEdges">
  <rect x="192" y="80" width="8" height="8" fill="#d9be92" />
<rect x="152" y="88" width="88" height="8" fill="#d9be92" />
<rect x="128" y="96" width="8" height="8" fill="#fff3da" />
<rect x="136" y="96" width="120" height="8" fill="#d9be92" />
<rect x="120" y="104" width="8" height="8" fill="#fff3da" />
<rect x="128" y="104" width="136" height="8" fill="#d9be92" />
<rect x="112" y="112" width="8" height="8" fill="#fff3da" />
<rect x="120" y="112" width="152" height="8" fill="#d9be92" />
<rect x="104" y="120" width="8" height="8" fill="#fff3da" />
<rect x="112" y="120" width="168" height="8" fill="#d9be92" />
<rect x="104" y="128" width="184" height="8" fill="#d9be92" />
<rect x="96" y="136" width="200" height="8" fill="#d9be92" />
<rect x="96" y="144" width="200" height="8" fill="#d9be92" />
<rect x="88" y="152" width="80" height="8" fill="#d9be92" />
<rect x="168" y="152" width="8" height="8" fill="#b89a6f" />
<rect x="176" y="152" width="128" height="8" fill="#d9be92" />
<rect x="88" y="160" width="72" height="8" fill="#d9be92" />
<rect x="160" y="160" width="24" height="8" fill="#b89a6f" />
<rect x="184" y="160" width="120" height="8" fill="#d9be92" />
<rect x="88" y="168" width="64" height="8" fill="#d9be92" />
<rect x="152" y="168" width="40" height="8" fill="#b89a6f" />
<rect x="192" y="168" width="112" height="8" fill="#d9be92" />
<rect x="88" y="176" width="72" height="8" fill="#d9be92" />
<rect x="160" y="176" width="24" height="8" fill="#b89a6f" />
<rect x="184" y="176" width="120" height="8" fill="#d9be92" />
<rect x="8" y="184" width="80" height="8" fill="#d8c19a" />
<rect x="88" y="184" width="80" height="8" fill="#d9be92" />
<rect x="168" y="184" width="8" height="8" fill="#b89a6f" />
<rect x="176" y="184" width="128" height="8" fill="#d9be92" />
<rect x="304" y="184" width="80" height="8" fill="#d8c19a" />
<rect x="0" y="192" width="80" height="8" fill="#d8c19a" />
<rect x="80" y="192" width="176" height="8" fill="#d9be92" />
<rect x="256" y="192" width="8" height="8" fill="#b89a6f" />
<rect x="264" y="192" width="48" height="8" fill="#d9be92" />
<rect x="312" y="192" width="72" height="8" fill="#d8c19a" />
<rect x="0" y="200" width="248" height="8" fill="#d8c19a" />
<rect x="248" y="200" width="24" height="8" fill="#b89a6f" />
<rect x="272" y="200" width="112" height="8" fill="#d8c19a" />
<rect x="8" y="208" width="232" height="8" fill="#d8c19a" />
<rect x="240" y="208" width="40" height="8" fill="#b89a6f" />
<rect x="280" y="208" width="104" height="8" fill="#d8c19a" />
<rect x="32" y="216" width="216" height="8" fill="#d8c19a" />
<rect x="248" y="216" width="24" height="8" fill="#b89a6f" />
<rect x="272" y="216" width="88" height="8" fill="#d8c19a" />
<rect x="72" y="224" width="184" height="8" fill="#d8c19a" />
<rect x="256" y="224" width="8" height="8" fill="#b89a6f" />
<rect x="264" y="224" width="56" height="8" fill="#d8c19a" />
<rect x="88" y="232" width="104" height="8" fill="#d9be92" />
<rect x="192" y="232" width="8" height="8" fill="#d8c19a" />
<rect x="200" y="232" width="104" height="8" fill="#d9be92" />
<rect x="96" y="240" width="200" height="8" fill="#d9be92" />
<rect x="296" y="240" width="8" height="8" fill="#7f6846" />
<rect x="96" y="248" width="200" height="8" fill="#d9be92" />
<rect x="296" y="248" width="8" height="8" fill="#7f6846" />
<rect x="104" y="256" width="184" height="8" fill="#d9be92" />
<rect x="288" y="256" width="16" height="8" fill="#7f6846" />
<rect x="112" y="264" width="168" height="8" fill="#d9be92" />
<rect x="280" y="264" width="16" height="8" fill="#7f6846" />
<rect x="120" y="272" width="152" height="8" fill="#d9be92" />
<rect x="272" y="272" width="24" height="8" fill="#7f6846" />
<rect x="128" y="280" width="136" height="8" fill="#d9be92" />
<rect x="264" y="280" width="24" height="8" fill="#7f6846" />
<rect x="136" y="288" width="120" height="8" fill="#d9be92" />
<rect x="256" y="288" width="24" height="8" fill="#7f6846" />
<rect x="152" y="296" width="88" height="8" fill="#d9be92" />
<rect x="240" y="296" width="32" height="8" fill="#7f6846" />
<rect x="184" y="304" width="8" height="8" fill="#7f6846" />
<rect x="192" y="304" width="8" height="8" fill="#d9be92" />
<rect x="200" y="304" width="56" height="8" fill="#7f6846" />
<rect x="216" y="312" width="8" height="8" fill="#7f6846" />
</svg>
