<?xml version="1.0" encoding="UTF-8"?>
<svg xmlns="http://www.w3.org/2000/svg" width="384" height="384" viewBox="0 0 384 384" shape-rendering="crispEdges">
  <rect x="192" y="64" width="8" height="8" fill="#efe2cc" />
<rect x="184" y="72" width="24" height="8" fill="#efe2cc" />
<rect x="184" y="80" width="24" height="8" fill="#efe2cc" />
<rect x="184" y="88" width="24" height="8" fill="#efe2cc" />
<rect x="160" y="96" width="8" height="8" fill="#fffaf3" />
<rect x="176" y="96" width="40" height="8" fill="#efe2cc" />
<rect x="224" y="96" width="8" height="8" fill="#fffaf3" />
<rect x="160" y="104" width="8" height="8" fill="#fffaf3" />
<rect x="176" y="104" width="40" height="8" fill="#efe2cc" />
<rect x="224" y="104" width="8" height="8" fill="#fffaf3" />
<rect x="160" y="112" width="8" height="8" fill="#fffaf3" />
<rect x="176" y="112" width="40" height="8" fill="#efe2cc" />
<rect x="224" y="112" width="8" height="8" fill="#fffaf3" />
<rect x="160" y="120" width="8" height="8" fill="#fffaf3" />
<rect x="168" y="120" width="16" height="8" fill="#efe2cc" />
<rect x="184" y="120" width="16" height="8" fill="#fff4e3" />
<rect x="200" y="120" width="24" height="8" fill="#efe2cc" />
<rect x="224" y="120" width="8" height="8" fill="#fffaf3" />
<rect x="160" y="128" width="8" height="8" fill="#fffaf3" />
<rect x="168" y="128" width="16" height="8" fill="#efe2cc" />
<rect x="184" y="128" width="16" height="8" fill="#fff4e3" />
<rect x="200" y="128" width="24" height="8" fill="#efe2cc" />
<rect x="224" y="128" width="8" height="8" fill="#fffaf3" />
<rect x="160" y="136" width="8" height="8" fill="#fffaf3" />
<rect x="168" y="136" width="16" height="8" fill="#efe2cc" />
<rect x="184" y="136" width="16" height="8" fill="#fff4e3" />
<rect x="200" y="136" width="24" height="8" fill="#efe2cc" />
<rect x="224" y="136" width="8" height="8" fill="#fffaf3" />
<rect x="160" y="144" width="24" height="8" fill="#efe2cc" />
<rect x="184" y="144" width="16" height="8" fill="#fff4e3" />
<rect x="200" y="144" width="32" height="8" fill="#efe2cc" />
<rect x="160" y="152" width="24" height="8" fill="#efe2cc" />
<rect x="184" y="152" width="16" height="8" fill="#fff4e3" />
<rect x="200" y="152" width="32" height="8" fill="#efe2cc" />
<rect x="160" y="160" width="72" height="8" fill="#efe2cc" />
<rect x="160" y="168" width="72" height="8" fill="#efe2cc" />
<rect x="152" y="176" width="88" height="8" fill="#efe2cc" />
<rect x="152" y="184" width="16" height="8" fill="#efe2cc" />
<rect x="168" y="184" width="48" height="8" fill="#6c5768" />
<rect x="216" y="184" width="24" height="8" fill="#efe2cc" />
<rect x="152" y="192" width="16" height="8" fill="#efe2cc" />
<rect x="168" y="192" width="48" height="8" fill="#6c5768" />
<rect x="216" y="192" width="24" height="8" fill="#efe2cc" />
<rect x="144" y="200" width="24" height="8" fill="#efe2cc" />
<rect x="168" y="200" width="48" height="8" fill="#6c5768" />
<rect x="216" y="200" width="32" height="8" fill="#efe2cc" />
<rect x="144" y="208" width="24" height="8" fill="#d1b39d" />
<rect x="168" y="208" width="48" height="8" fill="#6c5768" />
<rect x="216" y="208" width="24" height="8" fill="#d1b39d" />
<rect x="240" y="208" width="8" height="8" fill="#efe2cc" />
<rect x="144" y="216" width="24" height="8" fill="#d1b39d" />
<rect x="168" y="216" width="48" height="8" fill="#6c5768" />
<rect x="216" y="216" width="24" height="8" fill="#d1b39d" />
<rect x="240" y="216" width="8" height="8" fill="#efe2cc" />
<rect x="136" y="224" width="8" height="8" fill="#efe2cc" />
<rect x="144" y="224" width="24" height="8" fill="#d1b39d" />
<rect x="168" y="224" width="48" height="8" fill="#6c5768" />
<rect x="216" y="224" width="24" height="8" fill="#d1b39d" />
<rect x="240" y="224" width="16" height="8" fill="#efe2cc" />
<rect x="136" y="232" width="8" height="8" fill="#efe2cc" />
<rect x="144" y="232" width="24" height="8" fill="#d1b39d" />
<rect x="168" y="232" width="48" height="8" fill="#6c5768" />
<rect x="216" y="232" width="24" height="8" fill="#d1b39d" />
<rect x="240" y="232" width="16" height="8" fill="#efe2cc" />
<rect x="136" y="240" width="8" height="8" fill="#efe2cc" />
<rect x="144" y="240" width="24" height="8" fill="#d1b39d" />
<rect x="168" y="240" width="48" height="8" fill="#6c5768" />
<rect x="216" y="240" width="24" height="8" fill="#d1b39d" />
<rect x="240" y="240" width="16" height="8" fill="#efe2cc" />
<rect x="144" y="248" width="24" height="8" fill="#d1b39d" />
<rect x="168" y="248" width="48" height="8" fill="#6c5768" />
<rect x="216" y="248" width="24" height="8" fill="#d1b39d" />
<rect x="144" y="256" width="24" height="8" fill="#d1b39d" />
<rect x="168" y="256" width="16" height="8" fill="#ff8a5c" />
<rect x="184" y="256" width="16" height="8" fill="#6c5768" />
<rect x="200" y="256" width="16" height="8" fill="#ff8a5c" />
<rect x="216" y="256" width="24" height="8" fill="#d1b39d" />
<rect x="168" y="264" width="16" height="8" fill="#ff8a5c" />
<rect x="200" y="264" width="16" height="8" fill="#ff8a5c" />
<rect x="168" y="272" width="16" height="8" fill="#ff8a5c" />
<rect x="200" y="272" width="16" height="8" fill="#ff8a5c" />
<rect x="168" y="280" width="8" height="8" fill="#ff8a5c" />
<rect x="176" y="280" width="32" height="8" fill="#ffd3a1" />
<rect x="208" y="280" width="8" height="8" fill="#ff8a5c" />
<rect x="168" y="288" width="8" height="8" fill="#ff8a5c" />
<rect x="176" y="288" width="32" height="8" fill="#ffd3a1" />
<rect x="208" y="288" width="8" height="8" fill="#ff8a5c" />
<rect x="176" y="296" width="32" height="8" fill="#ffd3a1" />
</svg>
