<svg xmlns="http://www.w3.org/2000/svg" viewBox="0 0 320 140" fill="none">
  <g fill="#F5F0EA">
    <path d="M160 36c9.6 0 17.4 6.4 18.9 15.1h-16.2l-6.4 10.6-6.4-10.6h-17.8c2.4-8.8 12.8-15.1 27.9-15.1Z"/>
    <path d="M103 38h-58c0 8.7 7.1 15.8 15.8 15.8h53.8L103 38Z"/>
    <path d="M217 38h58c0 8.7-7.1 15.8-15.8 15.8h-53.8L217 38Z"/>
    <path d="M118.6 58.8H55.8c0 8.7 7.1 15.8 15.8 15.8h55.9l-8.9-15.8Z"/>
    <path d="M201.4 58.8h62.8c0 8.7-7.1 15.8-15.8 15.8h-55.9l8.9-15.8Z"/>
    <path d="M130.4 79.4H68.5c0 8.7 7.1 15.8 15.8 15.8h52.3l-6.2-15.8Z"/>
    <path d="M189.6 79.4h61.9c0 8.7-7.1 15.8-15.8 15.8h-52.3l6.2-15.8Z"/>
    <path d="M140.7 100.2H80.8c0 8.7 7.1 15.8 15.8 15.8h46.9l-2.8-15.8Z"/>
    <path d="M179.3 100.2h59.9c0 8.7-7.1 15.8-15.8 15.8h-46.9l2.8-15.8Z"/>
    <path d="M147 121.4h-32.8c0 8.1 6.6 14.6 14.6 14.6H147v-14.6Z"/>
    <path d="M173 121.4h32.8c0 8.1-6.6 14.6-14.6 14.6H173v-14.6Z"/>
  </g>
</svg>
